<svg width="32" height="32" viewBox="0 0 32 32" fill="none" xmlns="http://www.w3.org/2000/svg">
  <!-- Fundo circular gradiente -->
  <circle cx="16" cy="16" r="16" fill="url(#paint0_linear)"/>
  
  <!-- Letra G estilizada -->
  <path d="M20.5 10H11.5C10.67 10 10 10.67 10 11.5V20.5C10 21.33 10.67 22 11.5 22H20.5C21.33 22 22 21.33 22 20.5V11.5C22 10.67 21.33 10 20.5 10ZM19 17H16V20H15V17H13V16H15V15.5C15 14.12 16.12 13 17.5 13C18.88 13 20 14.12 20 15.5V16H19V15.5C19 14.67 18.33 14 17.5 14C16.67 14 16 14.67 16 15.5V16H19V17Z" fill="white"/>
  
  <!-- Definição do gradiente -->
  <defs>
    <linearGradient id="paint0_linear" x1="0" y1="0" x2="32" y2="32" gradientUnits="userSpaceOnUse">
      <stop offset="0%" stop-color="#3B82F6"/>
      <stop offset="100%" stop-color="#1D4ED8"/>
    </linearGradient>
  </defs>
</svg>
